<?xml version="1.0" encoding="UTF-8" standalone="no"?>
<svg
   xmlns:dc="http://purl.org/dc/elements/1.1/"
   xmlns:cc="http://creativecommons.org/ns#"
   xmlns:rdf="http://www.w3.org/1999/02/22-rdf-syntax-ns#"
   xmlns:svg="http://www.w3.org/2000/svg"
   xmlns="http://www.w3.org/2000/svg"
   xmlns:sodipodi="http://sodipodi.sourceforge.net/DTD/sodipodi-0.dtd"
   xmlns:inkscape="http://www.inkscape.org/namespaces/inkscape"
   xml:space="preserve"
   height="500.01715"
   width="500.74918"
   version="1.1"
   viewBox="0 0 500.74918 500.01715"
   id="svg2"
   inkscape:version="0.91 r13725"
   sodipodi:docname="compass1.svg"><sodipodi:namedview
     pagecolor="#ffffff"
     bordercolor="#666666"
     borderopacity="1"
     objecttolerance="10"
     gridtolerance="10"
     guidetolerance="10"
     inkscape:pageopacity="0"
     inkscape:pageshadow="2"
     inkscape:window-width="1215"
     inkscape:window-height="776"
     id="namedview29"
     showgrid="false"
     inkscape:zoom="0.66748591"
     inkscape:cx="228.21124"
     inkscape:cy="293.16942"
     inkscape:window-x="65"
     inkscape:window-y="24"
     inkscape:window-maximized="1"
     inkscape:current-layer="layer3" /><metadata
     id="metadata174"><rdf:RDF><cc:Work
         rdf:about=""><dc:format>image/svg+xml</dc:format><dc:type
           rdf:resource="http://purl.org/dc/dcmitype/StillImage" /><dc:title /><cc:license
           rdf:resource="http://creativecommons.org/licenses/by/3.0/" /></cc:Work><cc:License
         rdf:about="http://creativecommons.org/licenses/by/3.0/"><cc:permits
           rdf:resource="http://creativecommons.org/ns#Reproduction" /><cc:permits
           rdf:resource="http://creativecommons.org/ns#Distribution" /><cc:requires
           rdf:resource="http://creativecommons.org/ns#Notice" /><cc:requires
           rdf:resource="http://creativecommons.org/ns#Attribution" /><cc:permits
           rdf:resource="http://creativecommons.org/ns#DerivativeWorks" /></cc:License></rdf:RDF></metadata><defs
     id="defs172" /><g
     style="display:inline"
     id="layer3"
     transform="translate(-50.267578,-44.531702)"><path
       id="path10"
       d="m 301.48279,544.76416 c 141.72847,0 249.98744,-108.27223 249.98744,-250.01424 0,-141.73634 -108.26465,-250.002922 -249.98744,-250.002922 -141.72847,0 -249.987447,108.272242 -249.987447,250.002922 0,141.73634 108.264657,250.01424 249.987447,250.01424 z"
       style="display:inline;fill-rule:evenodd" /><path
       d="m 214.17524,115.55964 q 2.19996,-0.51868 3.95121,0.33288 1.76507,0.84493 2.69745,2.88177 1.43093,3.126 0.11867,5.84087 -1.31226,2.71487 -5.17274,4.56314 -1.29602,0.62049 -2.7978,1.01185 -1.48145,0.39887 -3.18252,0.57522 l -1.26261,-2.75828 q 1.47538,0.13862 3.01599,-0.16791 1.54063,-0.30649 3.04344,-1.02598 2.61961,-1.25418 3.49902,-2.96857 0.89314,-1.72096 -0.0328,-3.74371 -0.85466,-1.86708 -2.6161,-2.29994 -1.75406,-0.45357 -4.02899,0.63559 l -2.39897,1.14855 -1.07485,-2.34807 2.50931,-1.20138 q 2.05429,-0.98352 2.7615,-2.33955 0.70074,-1.37017 -0.0244,-2.95434 -0.7446,-1.62663 -2.2701,-1.94817 -1.51824,-0.34229 -3.61395,0.66107 -1.14439,0.5479 -2.3376,1.42957 -1.19331,0.88171 -2.51898,2.1717 l -1.16545,-2.54603 q 1.37836,-1.21174 2.65351,-2.09816 1.2889,-0.893 2.51602,-1.4805 3.1711,-1.51821 5.69855,-0.91762 2.52088,0.58655 3.67338,3.10428 0.80286,1.75391 0.38082,3.43911 -0.42854,1.671 -2.02104,3.00253 z m -19.79661,10.54416 q 2.12982,-0.76514 3.96181,-0.11721 1.84501,0.63977 2.99141,2.55889 1.7594,2.94533 0.74878,5.79309 -1.01061,2.84775 -4.64671,5.12301 -1.22069,0.76383 -2.67057,1.32322 -1.42888,0.56455 -3.1,0.9328 l -1.55246,-2.59885 q 1.4809,-0.0295 2.97852,-0.50899 1.49764,-0.47942 2.91311,-1.36513 2.46735,-1.54393 3.15595,-3.34798 0.70154,-1.81215 -0.43692,-3.718 -1.05086,-1.75916 -2.84775,-1.9897 -1.79179,-0.25197 -3.93449,1.08881 l -2.25955,1.41389 -1.32153,-2.21239 2.36346,-1.47891 q 1.93489,-1.21074 2.4911,-2.63901 0.54826,-1.4416 -0.34336,-2.93421 -0.9155,-1.53263 -2.46595,-1.67925 -1.54548,-0.16808 -3.51939,1.06707 -1.07786,0.67447 -2.1682,1.68629 -1.09042,1.01188 -2.26825,2.44465 l -1.43298,-2.39889 q 1.23863,-1.36095 2.40988,-2.38678 1.18418,-1.03394 2.33997,-1.75717 2.98679,-1.86895 5.5629,-1.55855 2.56808,0.29719 3.98513,2.66942 0.9871,1.65256 0.74982,3.3757 -0.24531,1.70979 -1.68378,3.21412 z m -66.46368,53.99376 q -1.3607,1.99291 -0.12671,4.38341 1.23015,2.36872 5.07635,5.13119 3.83363,2.75351 6.437,3.13837 2.59963,0.36304 3.96033,-1.6299 1.36939,-2.00566 0.13931,-4.37442 -1.23407,-2.39045 -5.06758,-5.14399 -3.84615,-2.76254 -6.44577,-3.12556 -2.6034,-0.38485 -3.97287,1.6209 z m -1.99799,-1.4351 q 2.1893,-3.2065 5.82565,-3.10803 3.63261,0.0764 8.35282,3.46715 4.70774,3.38137 6.03261,6.86532 1.32118,3.46217 -0.86819,6.66877 -2.18931,3.20649 -5.82189,3.12969 -3.63629,-0.0986 -8.34408,-3.47997 -4.72018,-3.39032 -6.04136,-6.85249 -1.32485,-3.48394 0.86444,-6.69044 z m -1.51137,23.44109 q 1.46326,-1.75951 3.36256,-2.14231 1.90656,-0.39658 3.83757,0.67424 2.96359,1.64343 3.48805,4.62928 0.52447,2.98584 -1.49834,6.82853 -0.67908,1.29004 -1.65631,2.52115 -0.95658,1.22479 -2.21854,2.40441 l -2.61498,-1.45013 q 1.26391,-0.78842 2.32158,-1.97492 1.05768,-1.1865 1.84512,-2.68237 1.37264,-2.60756 1.08215,-4.524 -0.28331,-1.93013 -2.20097,-2.99354 -1.77006,-0.98158 -3.43432,-0.25553 -1.67037,0.70488 -2.8624,2.96933 l -1.25704,2.38794 -2.22607,-1.23446 1.31484,-2.49773 q 1.0764,-2.04483 0.85595,-3.56778 -0.23385,-1.53039 -1.73571,-2.36322 -1.54213,-0.85516 -2.95249,-0.18344 -1.41658,0.65063 -2.5147,2.73668 -0.59964,1.13911 -1.04454,2.57668 -0.44499,1.43766 -0.75894,3.28471 l -2.41375,-1.33851 q 0.40169,-1.8162 0.90956,-3.30758 0.51508,-1.50507 1.15808,-2.72653 1.66159,-3.15649 4.03769,-4.21478 2.36272,-1.06563 4.74962,0.25804 1.66278,0.92206 2.30318,2.53602 0.62693,1.6065 0.12306,3.64977 z m -33.016611,87.20091 0.98723,-14.94818 1.30694,0.0938 20.825961,9.97544 -0.21698,3.28549 -19.582114,-9.3852 -0.737341,11.16449 -2.583616,-0.18554 z m 20.626011,19.74862 -0.54527,-10.99161 2.58619,-0.12835 0.7332,14.78014 -2.58618,0.12836 q -1.89922,-1.7031 -5.09489,-4.6391 -3.21158,-2.9508 -4.13338,-3.7022 -1.73316,-1.4301 -2.90349,-1.9659 -1.186274,-0.55066 -2.296779,-0.49555 -1.810296,0.0898 -2.88628,1.45609 -1.076735,1.35068 -0.973094,3.43984 0.07345,1.48119 0.657449,3.10881 0.583219,1.6121 1.695277,3.43249 l -3.103356,0.15402 q -0.839734,-1.86519 -1.302134,-3.49883 -0.462288,-1.63378 -0.530355,-3.00577 -0.179428,-3.61706 1.47853,-5.85617 1.657968,-2.23912 4.609194,-2.38559 1.399545,-0.0695 2.689278,0.41356 1.27369,0.46818 3.04791,1.80241 0.46049,0.36787 2.67871,2.35208 2.20297,1.98497 6.17967,5.60115 z m 3.74097,78.38012 14.35394,1.36793 -3.57977,-7.07395 -10.77417,5.70602 z m -2.0072,1.99519 -1.78288,-3.52312 13.15381,-6.96629 -1.49507,-2.95437 2.27114,-1.20284 1.49507,2.95439 4.75855,-2.52011 1.41084,2.78791 -4.75857,2.52011 4.73087,9.34864 -2.63618,1.39609 -17.14786,-1.84047 z m 31.46612,13.5883 -6.02051,-9.12725 2.14427,-1.48242 8.09564,12.27321 -2.14427,1.48241 q -2.48304,-0.45118 -6.69654,-1.27059 -4.23459,-0.82363 -5.40171,-0.97819 -2.20321,-0.3054 -3.4737,-0.14328 -1.29159,0.15777 -2.21236,0.79431 -1.50094,1.03768 -1.72961,2.77914 -0.23719,1.72857 0.90712,3.46338 0.81131,1.22995 2.13269,2.31444 1.31287,1.07159 3.18277,2.04097 l -2.57309,1.77887 q -1.65991,-1.15222 -2.88038,-2.30652 -1.22053,-1.15433 -1.97201,-2.29361 -1.98122,-3.00356 -1.69653,-5.80168 0.28468,-2.79814 2.73163,-4.48979 1.16039,-0.80222 2.5062,-1.07286 1.32459,-0.27483 3.51442,-0.0733 0.57927,0.0707 3.47684,0.59348 2.8849,0.53146 8.10933,1.51912 z m 58.53847,53.10039 -4.25426,-2.75401 -9.24067,15.02452 5.21226,2.0463 -1.49275,2.42711 -5.18648,-2.02961 -2.60416,-1.68581 10.73366,-17.45202 -4.25425,-2.75401 1.37921,-2.24251 11.08669,7.17702 -1.37921,2.24251 z m 17.01104,9.04837 -9.66915,-4.81133 1.12656,-2.38658 13.00186,6.46968 -1.12656,2.38657 q -2.3658,0.88574 -6.40672,2.34214 -4.06122,1.46359 -5.1451,1.92976 -2.05271,0.86812 -3.07088,1.66166 -1.03848,0.8007 -1.52224,1.82551 -0.78856,1.67055 -0.1335,3.29668 0.64135,1.61933 2.47916,2.53382 1.30298,0.64835 2.97537,0.90847 1.65873,0.25328 3.74859,0.13163 l -1.35187,2.86383 q -1.99798,-0.14472 -3.61735,-0.51718 -1.61949,-0.37246 -2.82639,-0.97301 -3.1819,-1.58329 -4.30584,-4.15356 -1.12397,-2.57026 0.16152,-5.29371 0.60966,-1.29152 1.63969,-2.21786 1.00968,-0.91908 2.99999,-1.87035 0.53507,-0.23644 3.29398,-1.2734 2.75225,-1.0228 7.74882,-2.85321 z m 69.52936,26.32624 q 2.19069,0.11905 3.51267,-1.01269 1.30671,-1.13251 1.41063,-3.23689 0.10392,-2.10439 -1.08428,-3.37243 -1.20345,-1.26885 -3.39414,-1.38783 -2.19068,-0.11905 -3.51266,1.0127 -1.32276,1.1472 -1.4259,3.23606 -0.10392,2.10438 1.09954,3.37324 1.18818,1.26804 3.39414,1.38784 z m 3.00686,1.50791 q 1.95305,0.60622 2.9951,2.05384 1.02684,1.44685 0.92833,3.44205 -0.13774,2.79023 -2.14991,4.30644 -2.02731,1.51538 -5.40467,1.33194 -3.39254,-0.18426 -5.24459,-1.91034 -1.85202,-1.7261 -1.71425,-4.51633 0.0985,-1.99521 1.27756,-3.32223 1.16385,-1.32787 3.15094,-1.72007 -2.19495,-0.65063 -3.35104,-2.26077 -1.17125,-1.61089 -1.06118,-3.84 0.16702,-3.38256 2.27968,-5.08088 2.09741,-1.69916 5.85512,-1.49506 3.75759,0.2041 5.69169,2.12223 1.91882,1.91729 1.75181,5.29984 -0.11012,2.22912 -1.43372,3.7045 -1.32364,1.47538 -3.57093,1.88483 z m 0.88019,5.03365 q 0.0894,-1.80822 -0.95602,-2.88092 -1.06054,-1.07353 -3.05348,-1.18177 -1.97767,-0.10745 -3.13828,0.84547 -1.17574,0.95206 -1.26504,2.76026 -0.0892,1.80824 0.98642,2.88258 1.06053,1.07353 3.0382,1.18094 1.99297,0.1083 3.15354,-0.84464 1.14539,-0.95371 1.23466,-2.76192 z m 23.82368,-15.14097 -5.01799,0.28899 1.01504,17.75101 5.39483,-1.43645 0.16396,2.86754 -5.36441,1.43471 -3.07161,0.17689 -1.17905,-20.61903 -5.01799,0.28898 -0.15149,-2.64945 13.07695,-0.75307 0.1515,2.64946 z m 74.87619,-2.57676 0.90931,-14.7253 -6.79816,3.80532 5.88869,10.91969 z m 2.00683,2.01587 -3.38549,1.89566 -7.18929,-13.33146 -2.83909,1.58948 -1.24139,-2.30182 2.83908,-1.58948 -2.6009,-4.82281 2.679,-1.50011 2.60089,4.82279 8.98396,-5.02931 1.44076,2.6718 -1.28764,17.59562 z m 15.67801,-32.75654 -4.38822,2.50143 8.46194,15.54188 4.23893,-3.70376 1.36694,2.51068 -4.21231,3.6886 -2.68613,1.53122 -9.82913,-18.05297 -4.38817,2.50151 -1.2629,-2.31978 11.4357,-6.51893 1.26291,2.31978 z m 51.77257,-56.06688 -2.6787,4.33914 14.68341,9.57689 1.98592,-5.32584 2.372,1.54707 -1.9697,5.29955 -1.6397,2.65611 -17.05579,-11.12422 -2.67873,4.33916 -2.19157,-1.42941 6.98079,-11.3079 2.19158,1.42942 z m 11.35694,-19.25372 -2.56847,4.42145 14.91358,9.12131 1.85145,-5.38662 2.40917,1.47348 -1.83588,5.35982 -1.57223,2.70652 -17.32311,-10.59503 -2.56848,4.42146 -2.22595,-1.36141 6.69348,-11.52244 2.22595,1.36142 z m 14.94694,-86.83258 2.79941,0.14562 q -0.60359,1.15626 -0.95001,2.35725 -0.34642,1.20088 -0.40157,2.37008 -0.14705,3.11785 1.81443,4.86067 1.97603,1.75927 6.13369,2.20983 -1.26578,-0.9722 -1.90018,-2.39597 -0.63442,-1.42388 -0.55503,-3.10741 0.1647,-3.49195 2.31498,-5.42735 2.16471,-1.91899 5.74011,-1.73309 3.49926,0.18193 5.51409,2.41199 2.01483,2.23007 1.84866,5.7533 -0.19043,4.0376 -3.31803,6.00029 -3.11317,1.97912 -8.86415,1.68011 -5.37061,-0.27921 -8.4573,-3.06517 -3.07226,-2.7695 -2.86417,-7.18129 0.0559,-1.18473 0.34144,-2.3889 0.28578,-1.203 0.80396,-2.48875 z m 9.33504,6.76762 q -0.1,2.12013 1.25689,3.42525 1.35616,1.32065 3.82079,1.44881 2.44949,0.12723 3.92329,-1.04617 1.48823,-1.15721 1.58822,-3.27732 0.1,-2.12012 -1.27133,-3.44167 -1.35688,-1.30513 -3.80636,-1.43251 -2.46477,-0.12817 -3.93772,1.02988 -1.47378,1.17352 -1.57378,3.29373 z m -23.79839,-98.60955 q -1.00061,-1.86122 -2.8297,-2.25795 -1.82168,-0.38299 -3.98224,0.83311 -2.14712,1.20891 -2.8197,2.99543 -0.6518,1.79299 0.34889,3.6543 1.0007,1.86117 2.82232,2.24421 1.8423,0.38914 3.98957,-0.81947 2.16053,-1.21641 2.81236,-3.00908 0.65914,-1.77936 -0.3415,-3.64055 z m 11.39296,0.73591 -2.45398,1.38137 q -0.079,-1.31031 -0.39954,-2.52047 -0.31316,-1.19644 -0.87232,-2.23648 -1.47158,-2.73712 -4.05205,-3.17434 -2.57309,-0.4235 -6.32459,1.42057 1.59449,0.15432 2.86283,1.02702 1.28172,0.8652 2.06898,2.32951 1.65552,3.07925 0.78477,5.88681 -0.84997,2.81377 -3.98425,4.57793 -3.06758,1.72653 -5.9221,0.90887 -2.85455,-0.81771 -4.51743,-3.91069 -1.90563,-3.54454 -0.27291,-6.90587 1.64604,-3.36881 6.67419,-6.19896 4.72145,-2.65746 8.7584,-1.93477 4.05027,0.71524 6.13248,4.58818 0.55907,1.04009 0.92564,2.20644 0.37382,1.18005 0.5918,2.55491 z m -82.78852,-72.59997 q 1.66472,1.56835 1.97199,3.52837 0.32015,1.96817 -0.79149,3.90309 -1.70611,2.96955 -4.63611,3.38802 -2.93,0.41847 -6.60659,-1.80567 -1.23432,-0.7467 -2.40071,-1.79634 -1.16095,-1.02823 -2.2672,-2.36741 l 1.5054,-2.62023 q 0.72427,1.32586 1.84476,2.45595 1.12009,1.13027 2.55132,1.99608 2.49485,1.50925 4.37384,1.2879 1.89208,-0.21344 2.99604,-2.13496 1.01901,-1.77364 0.3691,-3.50678 -0.62903,-1.73856 -2.7956,-3.04922 l -2.28473,-1.38212 1.28151,-2.23057 2.38979,1.44567 q 1.95647,1.18355 3.44932,1.01828 1.50054,-0.17868 2.36519,-1.68366 0.88778,-1.54523 0.28198,-3.01621 -0.58502,-1.47647 -2.5809,-2.68391 -1.08987,-0.65932 -2.47619,-1.17204 -1.38642,-0.51279 -3.17665,-0.9077 l 1.38957,-2.41861 q 1.75707,0.4835 3.19366,1.06286 1.4497,0.58727 2.61837,1.29425 3.02006,1.82697 3.96911,4.30226 0.95662,2.46186 -0.41749,4.85359 -0.95722,1.66615 -2.55347,2.2578 -1.58851,0.57819 -3.56346,-0.019 z M 301.2881,86.450891 q -2.37595,-0.04303 -3.61496,2.338644 -1.22348,2.366289 -1.29507,7.173247 -0.0714,4.791278 1.08075,7.216248 1.16765,2.40958 3.54361,2.45262 2.39112,0.0433 3.61472,-2.32299 1.239,-2.38166 1.31037,-7.172932 0.0716,-4.806938 -1.09606,-7.216552 -1.15211,-2.424981 -3.54336,-2.468285 z m 0.0372,-2.497118 q 3.82278,0.06923 5.787,3.211469 1.97965,3.126847 1.89177,9.02619 -0.0876,5.883808 -2.15956,8.952818 -2.05641,3.05376 -5.87928,2.98452 -3.82277,-0.0692 -5.8024,-3.19608 -1.9641,-3.14223 -1.87647,-9.025929 0.0879,-5.899337 2.14427,-8.953093 2.07192,-3.069127 5.89467,-2.999895 z m -1.0866,-35.930634 0,24.070312 2.44531,2e-6 -10e-6,-24.070312 -2.4453,-2e-6 z m 22.73634,1.091795 -1.15822,12.626953 2.41407,0.195312 1.1582,-12.630859 -2.41405,-0.191406 z m -40.70705,0.160161 -2.41993,0.226563 1.06641,12.625 c 0.80323,-0.06202 1.61085,-0.158686 2.41407,-0.220707 l -1.06055,-12.630856 z m -22.54688,2.275392 -2.38281,0.416015 4.18555,23.720701 2.38282,-0.419921 -4.18556,-23.716795 z m 83.47462,0.0059 -4.28125,24.265628 c 0.77255,0.128007 1.57958,0.289514 2.3828,0.417968 l 4.28322,-24.267576 -2.38477,-0.41602 z m 22.18555,4.628908 -3.38086,12.4043 c 0.77142,0.194896 1.54322,0.385364 2.32031,0.611324 l 3.41406,-12.404297 2e-5,-0.002 -2.3535,-0.60938 z m -125.62501,0.537113 -2.35157,0.642581 3.22266,12.246089 c 0.80322,-0.225508 1.57512,-0.448585 2.34767,-0.642577 l -3.21876,-12.246093 z m 145.11524,5.759765 -8.46679,23.17382 c 0.77141,0.256472 1.54441,0.513301 2.28515,0.804692 l 8.4707,-23.140622 -2.28906,-0.83789 z m -166.78712,0.0039 -2.28515,0.835933 8.24023,22.626958 2.29102,-0.835937 -8.2461,-22.626954 z m 187.78908,7.999989 -5.47462,11.666027 c 0.71008,0.323352 1.45067,0.645863 2.19141,0.996091 l 5.49806,-11.666017 0.004,2.84e-4 -2.21875,-0.996098 z m -206.75783,0.931652 -2.22265,1.027339 5.31053,11.474614 c 0.74191,-0.353815 1.48386,-0.708039 2.22461,-1.031252 l -5.31249,-11.470706 z m -20.16601,9.0625 -2.09571,1.222655 12.08008,20.855471 2.0918,-1.21875 -12.07618,-20.859381 z m 245.01759,0.002 -12.33398,21.337896 c 0.67484,0.42074 1.38433,0.80632 2.08983,1.22265 l 12.33789,-21.337888 -2.09374,-1.222658 z m 19.23046,11.152347 -7.40819,10.576159 c 0.64417,0.44774 1.32262,0.89765 1.9668,1.38087 l 7.4375,-10.544923 -1.99611,-1.412106 z m -281.59962,1.259772 -1.99609,1.412111 7.24608,10.349606 c 0.67497,-0.45126 1.31866,-0.92949 1.99806,-1.38087 l -7.24805,-10.380847 z m 297.79104,12.042957 -15.87306,18.89844 c 0.64304,0.51373 1.25483,1.03225 1.8672,1.54688 l 15.875,-18.86719 -1.86914,-1.57813 z m -315.8262,0.004 -1.86718,1.57616 15.51953,18.44532 0.004,-3e-4 1.86719,-1.57031 L 143.5634,104.941 Z m 332.64065,14.00975 -9.14453,9.09766 c 0.58055,0.58062 1.16115,1.15632 1.73828,1.70507 l 9.11524,-9.09766 -1.70899,-1.70507 z m -347.86722,1.57814 -1.73828,1.73828 8.95117,8.93164 c 0.58056,-0.57938 1.15822,-1.15616 1.70899,-1.73633 l -8.92188,-8.93359 z m -15.36328,14.68555 -1.57617,1.86523 18.48243,15.49219 0.002,-1.3e-4 1.54492,-1.86522 -18.45313,-15.4922 z m 377.05081,-2e-5 -18.93555,15.84571 c 0.5158,0.61123 1.05956,1.25321 1.57423,1.86524 l 18.90625,-15.84572 -1.54493,-1.86523 z m 13.87696,16.42187 -10.5625,7.39259 c 0.48398,0.67812 0.93259,1.3187 1.38475,1.99218 l 10.59181,-7.42187 -1.41406,-1.9629 z m -403.58597,1.80471 -1.416013,1.99219 10.373043,7.22851 c 0.47932,-0.67234 0.93043,-1.34592 1.41406,-1.99218 l -10.37109,-7.22852 z m -12.232419,16.86328 -1.224619,2.08595 20.902338,12.05272 1.18947,-2.08789 -20.867189,-12.05078 z m 426.794949,0.008 -21.38672,12.33985 c 0.38629,0.67348 0.80769,1.3812 1.22457,2.08987 l 21.38281,-12.34377 -1.22068,-2.08594 z m 10.62891,18.34766 -11.68946,5.46483 c 0.32378,0.7404 0.67767,1.48016 0.99808,2.21485 l 11.68947,-5.49217 -0.99773,-2.18764 z m -447.119175,2.00392 -1.029295,2.21875 11.498048,5.30078 c 0.355485,-0.74037 0.674603,-1.47951 1.029294,-2.21875 l -11.498051,-5.30114 z m -8.707033,18.52929 -0.839842,2.28125 22.673833,8.22853 0.837881,-2.28126 -22.671872,-8.22852 z m 463.585968,0.01 -23.18749,8.41798 c 0.29201,0.7755 0.54931,1.51159 0.83788,2.28712 l 23.18751,-8.42384 -0.8379,-2.28126 z m 6.9629,19.69532 -12.43165,3.375 c 0.19087,0.80613 0.41851,1.57585 0.60938,2.34571 l 12.43554,-3.37305 -0.61327,-2.34766 z m -476.953159,2.18556 -0.642584,2.34766 12.271493,3.21093 c 0.190863,-0.76985 0.41615,-1.5402 0.642569,-2.34179 l -12.271478,-3.2168 z m 481.363319,19.60741 -24.31445,4.31056 c 0.1295,0.77098 0.28762,1.57277 0.416,2.3789 l 24.31641,-4.2754 -0.41796,-2.41406 z m -486.322315,0.002 -0.421866,2.41406 23.769536,4.17773 0.416005,-2.3789 -23.763675,-4.21289 z m 489.373085,20.46678 -12.81641,1.18945 0.19532,2.41016 12.8164,-1.15429 -0.19531,-2.44532 z m -492.339879,2.22267 -0.226564,2.41015 12.658206,1.05861 c 0.0977,-0.80161 0.158833,-1.60403 0.224616,-2.41016 l -12.656258,-1.0586 z m -0.986332,20.1504 9e-6,2.4414 24.11914,0 1e-6,-2.44141 -24.11915,10e-6 z m 469.541051,-10e-6 c 0,0.80159 0.0307,1.63866 10e-6,2.44139 l 24.69726,10e-6 0,-2.44141 -24.69727,10e-6 z m 10.97067,19.60352 -0.19141,2.41016 12.78127,1.06251 0.22655,-2.4082 -12.81641,-1.06447 z m -467.2871,2.11719 -12.652349,1.15625 0.191403,2.41406 12.6875,-1.16211 c -0.06124,-0.80159 -0.128969,-1.60208 -0.226554,-2.4082 z m 453.14846,16.8828 c -0.15906,0.8016 -0.2865,1.60856 -0.41601,2.41015 l 24.31642,4.27345 0.416,-2.37891 -24.31641,-4.30469 z m -439.068387,0.0957 -23.769533,4.20702 0.419921,2.37891 23.765628,-4.17774 -0.416016,-2.40819 z m 446.189487,21.11129 c -0.22609,0.80615 -0.41651,1.57782 -0.64258,2.34767 l 12.39843,3.27734 0.64454,-2.34375 -12.40039,-3.28126 z m -453.53129,2.05276 -12.302723,3.33984 0.613277,2.34571 12.30078,-3.33789 c -0.195293,-0.77552 -0.416036,-1.54606 -0.611334,-2.34766 z m 436.58793,14.17514 c -0.28857,0.73924 -0.54591,1.5114 -0.83789,2.28125 l 23.1875,8.41992 0.83789,-2.28126 -23.1875,-8.41991 z m -419.398471,0.19922 -22.671874,8.22463 0.837886,2.28124 22.671883,-8.2246 -0.837895,-2.28127 z m 422.371131,21.98436 c -0.35447,0.73925 -0.67825,1.47952 -1.0293,2.21876 l 11.62305,5.36914 1.02929,-2.21876 -11.62304,-5.36914 z m -425.939485,1.99026 -11.560555,5.4297 1.029325,2.18747 11.529311,-5.39842 c -0.323853,-0.73926 -0.678549,-1.47968 -0.99803,-2.21874 z m 406.742215,10.98631 c -0.38627,0.70411 -0.77188,1.41247 -1.19336,2.12111 l 21.38477,12.30858 1.22069,-2.09179 -21.4121,-12.3379 z m -386.93754,0.29494 -20.902337,12.05079 1.224603,2.0918 20.867194,-12.05079 -1.18946,-2.0918 z m 385.71097,22.20897 c -0.45331,0.67348 -0.9326,1.34657 -1.38477,2.02344 l 10.50001,7.29491 1.41406,-1.99412 -10.5293,-7.32423 z m -385.48635,1.83205 -10.433592,7.33007 1.384762,1.99414 10.43359,-7.33008 c -0.4491,-0.64173 -0.90101,-1.31612 -1.38476,-1.99413 z m 364.68558,7.51952 c -0.51467,0.61112 -1.02776,1.25411 -1.57422,1.86523 l 18.93553,15.84571 1.54494,-1.86523 -18.90625,-15.84571 z m -342.78324,0.35353 -18.48242,15.49218 1.57616,1.86524 18.45118,-15.49218 -1.54492,-1.86524 z m 337.34183,21.78318 c -0.54987,0.58051 -1.12731,1.15583 -1.70898,1.73634 l 9.04881,9.0293 1.74025,-1.73438 -9.08008,-9.03126 z m -333.28519,1.61526 -9.01953,8.99999 1.70899,1.69923 9.04883,-8.99414 c -0.57693,-0.57939 -1.15785,-1.15972 -1.73829,-1.70508 z m 311.45315,3.75779 c -0.61236,0.51362 -1.22416,1.05804 -1.86719,1.57617 l 15.87305,18.86328 1.86914,-1.57226 -15.875,-18.86719 z m -288.16604,0.41407 -15.52343,18.44922 1.86718,1.57422 15.48829,-18.44726 -1.83204,-1.57618 z m 278.73049,20.70702 c -0.64871,0.47848 -1.32319,0.9617 -1.99804,1.41408 l 7.34179,10.47851 1.9961,-1.41797 -7.33985,-10.47462 z m -22.19922,1.28126 c -0.71008,0.41608 -1.4201,0.80191 -2.09377,1.22262 l 12.33399,21.3379 2.09377,-1.22263 -12.33399,-21.33789 z m -248.74416,0.0899 -7.34375,10.4121 1.9961,1.38281 7.3457,-10.41211 c -0.6795,-0.483 -1.35411,-0.93495 -1.99805,-1.3828 z m 23.89649,0.38671 -12.07422,20.85548 2.09375,1.22265 12.07618,-20.85938 -2.09571,-1.21875 z M 378.684,503.02126 c -0.74077,0.28793 -1.51317,0.5758 -2.25391,0.83203 l 8.43554,23.17773 2.29103,-0.83789 -8.47266,-23.17187 z m -154.63868,0.54297 -8.24219,22.62696 2.28516,0.83789 8.24609,-22.62696 -2.28906,-0.83789 z m 176.51174,2.37695 c -0.70553,0.32313 -1.44679,0.67811 -2.18751,1.02735 l 5.3789,11.60548 2.22268,-1.02927 -5.41406,-11.60352 z m -200.38284,1.02345 -5.4082,11.50585 2.1914,1.02735 5.43945,-11.50196 c -0.74074,-0.35375 -1.48077,-0.67636 -2.22265,-1.03124 z m 141.12111,6.26757 c -0.80322,0.16326 -1.61223,0.32305 -2.38477,0.45117 l 4.28321,24.26563 2.38475,-0.41993 -4.28319,-24.29687 z m -79.76955,0.58398 -4.18359,23.71681 2.38086,0.42186 4.22071,-23.7207 -2.41798,-0.41797 z m 38.7129,3.01953 0,24.65235 2.44531,0 0,-24.65235 -2.44531,0 z m 61.9629,3.40235 c -0.77256,0.22677 -1.5503,0.42167 -2.35352,0.64843 l 3.28516,12.36913 2.35156,-0.64255 -3.2832,-12.37501 z m -123.74611,0.7129 -3.3457,12.27733 2.35155,0.61133 3.34767,-12.27735 c -0.80322,-0.19501 -1.57643,-0.3857 -2.35352,-0.61131 z m 83.54883,6.74802 c -0.83503,0.0975 -1.64209,0.15968 -2.4453,0.22659 l 1.06054,12.791 2.41993,-0.22655 -1.03517,-12.79104 z m -43.31054,0.22659 -1.18946,12.791 2.41407,0.18945 1.18945,-12.78905 -2.41406,-0.1914 z"
       id="CompasGraduation"
       inkscape:connector-curvature="0"
       style="fill:#fff4ff" /></g></svg>