<?xml version="1.0" encoding="UTF-8" standalone="no"?>
<!-- Created with Inkscape (http://www.inkscape.org/) -->

<svg
   xmlns:dc="http://purl.org/dc/elements/1.1/"
   xmlns:cc="http://creativecommons.org/ns#"
   xmlns:rdf="http://www.w3.org/1999/02/22-rdf-syntax-ns#"
   xmlns:svg="http://www.w3.org/2000/svg"
   xmlns="http://www.w3.org/2000/svg"
   xmlns:sodipodi="http://sodipodi.sourceforge.net/DTD/sodipodi-0.dtd"
   xmlns:inkscape="http://www.inkscape.org/namespaces/inkscape"
   id="svg6505"
   version="1.1"
   inkscape:version="0.91 r13725"
   xml:space="preserve"
   width="546.25"
   height="545"
   viewBox="0 0 546.25 545"
   sodipodi:docname="compass.svg"><metadata
     id="metadata6511"><rdf:RDF><cc:Work
         rdf:about=""><dc:format>image/svg+xml</dc:format><dc:type
           rdf:resource="http://purl.org/dc/dcmitype/StillImage" /><dc:title></dc:title></cc:Work></rdf:RDF></metadata><defs
     id="defs6509"><clipPath
       clipPathUnits="userSpaceOnUse"
       id="clipPath6521"><path
         d="m 0,10 4351,0 0,4351 L 0,4361 0,10 Z"
         id="path6523"
         inkscape:connector-curvature="0" /></clipPath></defs><sodipodi:namedview
     pagecolor="#ffffff"
     bordercolor="#666666"
     borderopacity="1"
     objecttolerance="10"
     gridtolerance="10"
     guidetolerance="10"
     inkscape:pageopacity="0"
     inkscape:pageshadow="2"
     inkscape:window-width="1280"
     inkscape:window-height="706"
     id="namedview6507"
     showgrid="false"
     inkscape:zoom="1.7321101"
     inkscape:cx="120.02743"
     inkscape:cy="516.67171"
     inkscape:window-x="0"
     inkscape:window-y="27"
     inkscape:window-maximized="1"
     inkscape:current-layer="g6515" /><g
     id="g6513"
     inkscape:groupmode="layer"
     inkscape:label="ink_ext_XXXXXX"
     transform="matrix(0,-1.25,-1.25,0,546.25,545)"><g
       id="g6515"
       transform="scale(0.1,0.1)"><path
         d="m 2177.3495,4387.7619 c 1247.4511,0 2200.4023,-954.9515 2200.4023,-2205.0615 0,-1250.07246 -952.9512,-2205.023109 -2200.4023,-2205.023109 -1247.49248,0 -2200.44272,954.950649 -2200.44272,2205.023109 0,1250.11 952.95024,2205.0615 2200.44272,2205.0615 z"
         style="fill:#000000;fill-opacity:1;fill-rule:evenodd;stroke:none"
         id="path6525"
         inkscape:connector-curvature="0" /><path
         d="m 2163.12,4362.32 0,-217.43 21.53,0 0,217.43 -21.53,0 z m 0,-4140.004 0,-212.3082 21.53,0 0,212.3082 -21.53,0 z"
         style="fill:#ffffff;fill-opacity:1;fill-rule:evenodd;stroke:none"
         id="path6527"
         inkscape:connector-curvature="0" /><path
         d="m 2541.25,4331.14 -37.7,-214.02 c 6.8,-1.13 13.91,-2.54 20.98,-3.98 l 37.7,214.29 -20.98,3.71 z M 1822.38,254.066 1785.55,44.8477 l 20.97,-3.6719 36.84,209.1792 -20.98,3.711 z"
         style="fill:#ffffff;fill-opacity:1;fill-rule:evenodd;stroke:none"
         id="path6529"
         inkscape:connector-curvature="0" /><path
         d="m 2908.05,4234.78 -74.26,-204.42 c 6.52,-2.26 13.32,-4.8 19.84,-7.34 l 74.57,204.37 -20.15,7.39 z M 1492.42,344.496 l -72.54,-199.57 20.12,-7.379 72.58,199.57 -20.16,7.379 z"
         style="fill:#ffffff;fill-opacity:1;fill-rule:evenodd;stroke:none"
         id="path6531"
         inkscape:connector-curvature="0" /><path
         d="m 3252.46,4076.3 -108.55,-188.2 c 5.93,-3.71 12.18,-7.11 18.43,-10.78 l 108.56,188.2 -18.44,10.78 z M 1183.48,491.027 1077.15,307.078 l 18.44,-10.781 106.29,183.98 -18.4,10.75 z"
         style="fill:#ffffff;fill-opacity:1;fill-rule:evenodd;stroke:none"
         id="path6533"
         inkscape:connector-curvature="0" /><path
         d="m 3563.98,3860.01 -139.72,-166.37 c 5.66,-4.57 11.05,-9.37 16.44,-13.9 l 139.73,166.4 -16.45,13.87 z M 904.262,688.598 767.621,525.906 l 16.438,-13.91 136.64,162.742 -16.437,13.86 z"
         style="fill:#ffffff;fill-opacity:1;fill-rule:evenodd;stroke:none"
         id="path6535"
         inkscape:connector-curvature="0" /><path
         d="m 3833.59,3593.29 -166.68,-139.76 c 4.81,-5.39 9.34,-11.06 13.87,-16.45 l 166.41,139.77 -13.6,16.44 z M 663.59,932.117 500.898,795.477 514.77,779.027 677.191,915.668 663.59,932.117 Z"
         style="fill:#ffffff;fill-opacity:1;fill-rule:evenodd;stroke:none"
         id="path6537"
         inkscape:connector-curvature="0" /><path
         d="m 4052.42,3283.45 -188.24,-108.56 c 3.71,-6.25 7.11,-12.5 10.51,-18.71 l 188.47,108.83 -10.74,18.44 z M 468.871,1213.29 284.879,1107 l 10.781,-18.4 183.68,106.29 -10.469,18.4 z"
         style="fill:#ffffff;fill-opacity:1;fill-rule:evenodd;stroke:none"
         id="path6539"
         inkscape:connector-curvature="0" /><path
         d="m 4214.26,2940.44 -204.1,-74.26 c 2.57,-6.79 4.84,-13.59 7.38,-20.11 l 204.1,74.25 -7.38,20.12 z M 325.98,1524.27 l -199.57,-72.58 7.379,-20.12 199.57,72.58 -7.379,20.12 z"
         style="fill:#ffffff;fill-opacity:1;fill-rule:evenodd;stroke:none"
         id="path6541"
         inkscape:connector-curvature="0" /><path
         d="m 4314.34,2574.78 -214.03,-37.7 c 1.14,-7.07 2.27,-14.18 3.67,-21.25 l 214.03,37.97 -3.67,20.98 z M 239.262,1855.64 30.0391,1818.8 l 3.7109,-21.29 209.18,37.15 -3.668,20.98 z"
         style="fill:#ffffff;fill-opacity:1;fill-rule:evenodd;stroke:none"
         id="path6543"
         inkscape:connector-curvature="0" /><path
         d="m 4349.18,2196.93 -217.38,0 c 0.27,-7.08 0,-14.46 0,-21.53 l 217.38,0 0,21.53 z m -4138.008,0 -212.30091,0 0,-21.53 212.30091,0 0,21.53 z"
         style="fill:#ffffff;fill-opacity:1;fill-rule:evenodd;stroke:none"
         id="path6545"
         inkscape:connector-curvature="0" /><path
         d="m 4318.01,1818.8 -214.03,37.7 c -1.13,-7.11 -2.53,-14.18 -3.67,-20.98 l 214.03,-38.01 3.67,21.29 z m -4075.08,719.14 -209.18,36.84 -3.7109,-20.98 209.2229,-37.11 3.668,21.25 z"
         style="fill:#ffffff;fill-opacity:1;fill-rule:evenodd;stroke:none"
         id="path6547"
         inkscape:connector-curvature="0" /><path
         d="m 4221.64,1451.69 -204.1,74.3 c -2.54,-6.84 -4.81,-13.32 -7.38,-20.16 l 204.1,-74.26 7.38,20.12 z M 333.359,2867.9 l -199.57,72.54 -7.379,-20.12 199.57,-72.54 7.379,20.12 z"
         style="fill:#ffffff;fill-opacity:1;fill-rule:evenodd;stroke:none"
         id="path6549"
         inkscape:connector-curvature="0" /><path
         d="m 4063.16,1107 -188.2,108.87 c -3.67,-6.25 -7.38,-12.5 -10.78,-18.44 l 188.24,-108.83 10.74,18.4 z m -3583.82,2070.16 -183.68,106.29 -10.781,-18.44 183.992,-106.29 10.469,18.44 z"
         style="fill:#ffffff;fill-opacity:1;fill-rule:evenodd;stroke:none"
         id="path6551"
         inkscape:connector-curvature="0" /><path
         d="m 3847.19,795.477 -166.41,139.769 c -4.53,-5.398 -9.33,-11.058 -13.87,-16.449 l 166.68,-139.77 13.6,16.45 z M 677.191,3456.65 514.77,3593.29 l -13.872,-16.44 162.692,-136.64 13.601,16.44 z"
         style="fill:#ffffff;fill-opacity:1;fill-rule:evenodd;stroke:none"
         id="path6553"
         inkscape:connector-curvature="0" /><path
         d="m 3580.43,525.906 -139.73,166.41 c -5.39,-4.539 -10.78,-9.109 -16.44,-13.64 l 139.72,-166.68 16.45,13.91 z M 920.391,3697.32 l -136.332,162.69 -16.438,-13.87 136.641,-162.73 16.129,13.91 z"
         style="fill:#ffffff;fill-opacity:1;fill-rule:evenodd;stroke:none"
         id="path6555"
         inkscape:connector-curvature="0" /><path
         d="m 3270.62,307.078 -108.59,188.199 c -6.21,-3.672 -12.46,-7.07 -18.4,-10.781 l 108.56,-188.199 18.43,10.781 z M 1201.6,3892.32 l -106.29,183.98 -18.43,-10.78 106.28,-183.95 18.44,10.75 z"
         style="fill:#ffffff;fill-opacity:1;fill-rule:evenodd;stroke:none"
         id="path6557"
         inkscape:connector-curvature="0" /><path
         d="m 2928.2,144.926 -74.57,204.101 c -6.52,-2.57 -13.32,-4.839 -20.11,-7.101 l 74.53,-204.379 20.15,7.379 z M 1512.58,4035.21 1440,4234.78 l -20.12,-7.39 72.54,-199.57 20.16,7.39 z"
         style="fill:#ffffff;fill-opacity:1;fill-rule:evenodd;stroke:none"
         id="path6559"
         inkscape:connector-curvature="0" /><path
         d="m 2562.23,44.8477 -37.7,214.0313 c -7.07,-1.133 -14.18,-2.543 -20.98,-3.672 l 37.7,-214.0312 20.98,3.6719 z m -718.56,4077.0823 -37.15,209.21 -20.97,-3.71 36.83,-209.18 21.29,3.68 z"
         style="fill:#ffffff;fill-opacity:1;fill-rule:evenodd;stroke:none"
         id="path6561"
         inkscape:connector-curvature="0" /><path
         d="m 1963.01,4355.52 10.47,-112.81 21.25,1.68 -10.47,112.81 -21.25,-1.68 z m 390.04,-4224.493 10.19,-111.3707 21.25,1.6796 -10.19,111.4101 -21.25,-1.719 z"
         style="fill:#ffffff;fill-opacity:1;fill-rule:evenodd;stroke:none"
         id="path6563"
         inkscape:connector-curvature="0" /><path
         d="m 2342.54,4355.52 -9.34,-112.81 c 7.07,-0.59 14.18,-1.14 21.53,-2 l 9.1,112.82 -21.29,1.99 z m -349.49,-4221.094 -9.38,-111.3674 21.29,-1.9922 9.34,111.4026 c -7.07,0.547 -14.18,1.41 -21.25,1.957 z"
         style="fill:#ffffff;fill-opacity:1;fill-rule:evenodd;stroke:none"
         id="path6565"
         inkscape:connector-curvature="0" /><path
         d="m 2716.72,4289.74 -28.91,-109.1 c 7.07,-2 13.91,-3.71 20.71,-5.71 l 28.9,109.14 -20.7,5.67 z M 1638.44,200.477 1610.08,92.4688 l 20.7,-5.6602 28.32,108.0074 c -6.8,1.711 -13.59,3.672 -20.66,5.661 z"
         style="fill:#ffffff;fill-opacity:1;fill-rule:evenodd;stroke:none"
         id="path6567"
         inkscape:connector-curvature="0" /><path
         d="m 3074.18,4160.21 -47.34,-102.35 c 6.52,-3.08 13.04,-6.21 19.25,-9.06 l 47.66,102.34 -19.57,9.07 z M 1300.23,326.648 l -46.75,-101.21 19.57,-9.059 46.75,101.168 c -6.52,2.851 -13.04,5.98 -19.57,9.101 z"
         style="fill:#ffffff;fill-opacity:1;fill-rule:evenodd;stroke:none"
         id="path6569"
         inkscape:connector-curvature="0" /><path
         d="m 3404.69,3970.87 -64.61,-92.42 c 5.94,-3.99 11.87,-8.24 17.58,-12.46 l 64.61,92.38 -17.58,12.5 z M 989.02,509.457 l -63.79,-91.289 17.579,-12.461 63.791,91.57 c -5.98,3.981 -11.639,8.2 -17.58,12.18 z"
         style="fill:#ffffff;fill-opacity:1;fill-rule:evenodd;stroke:none"
         id="path6571"
         inkscape:connector-curvature="0" /><path
         d="m 3697.5,3727.35 -79.65,-79.64 c 5.12,-5.12 10.2,-10.2 15.04,-15.32 l 79.92,79.65 -15.31,15.31 z M 713.48,743.598 634.691,664.816 650,649.496 l 78.52,78.793 c -4.848,5.117 -9.93,10.199 -15.04,15.309 z"
         style="fill:#ffffff;fill-opacity:1;fill-rule:evenodd;stroke:none"
         id="path6573"
         inkscape:connector-curvature="0" /><path
         d="m 3944.14,3436.81 -92.42,-64.34 c 3.98,-5.97 8.2,-11.91 12.19,-17.85 l 92.69,64.61 -12.46,17.58 z M 482.191,1021.1 l -91.293,-63.752 12.461,-17.571 91.289,63.753 c -4.257,5.7 -8.238,11.64 -12.457,17.57 z"
         style="fill:#ffffff;fill-opacity:1;fill-rule:evenodd;stroke:none"
         id="path6575"
         inkscape:connector-curvature="0" /><path
         d="m 4136.88,3108.57 -102.31,-47.35 c 3.09,-6.52 5.94,-13.05 9.06,-19.57 l 102.31,47.35 -9.06,19.57 z M 302.461,1334.35 201.25,1287.59 l 9.059,-19.57 101.211,46.76 c -3.122,6.52 -5.93,13.04 -9.059,19.57 z"
         style="fill:#ffffff;fill-opacity:1;fill-rule:evenodd;stroke:none"
         id="path6577"
         inkscape:connector-curvature="0" /><path
         d="m 4270.12,2752.51 -109.14,-28.91 c 1.99,-6.79 3.67,-13.59 5.66,-20.7 l 109.14,28.95 -5.66,20.66 z M 179.73,1673.64 71.7188,1645.32 l 5.6601,-20.7 108.0121,28.36 c -1.993,7.07 -3.981,13.87 -5.661,20.66 z"
         style="fill:#ffffff;fill-opacity:1;fill-rule:evenodd;stroke:none"
         id="path6579"
         inkscape:connector-curvature="0" /><path
         d="m 4339.26,2378.92 -112.5,-9.38 1.68,-21.25 112.81,9.38 -1.99,21.25 z M 117.07,2028.25 5.66016,2018.92 l 2,-21.25 111.39884,9.33 c -0.579,7.11 -1.129,14.18 -1.989,21.25 z"
         style="fill:#ffffff;fill-opacity:1;fill-rule:evenodd;stroke:none"
         id="path6581"
         inkscape:connector-curvature="0" /><path
         d="m 4342.97,1999.66 -112.81,10.19 -1.72,-21.25 112.81,-10.5 1.72,21.56 z M 117.34,2388.25 5.66016,2398.49 3.98047,2377.2 115.352,2367 c 0.859,7.11 1.449,14.18 1.988,21.25 z"
         style="fill:#ffffff;fill-opacity:1;fill-rule:evenodd;stroke:none"
         id="path6583"
         inkscape:connector-curvature="0" /><path
         d="m 4280.9,1626.03 -109.45,29.76 c -1.68,-6.79 -3.68,-13.59 -5.36,-20.7 l 109.42,-29.77 5.39,20.71 z M 180,2741.77 l -108.2812,29.45 -5.3907,-20.7 108.2809,-29.45 c 1.719,7.07 3.672,13.86 5.391,20.7 z"
         style="fill:#ffffff;fill-opacity:1;fill-rule:evenodd;stroke:none"
         id="path6585"
         inkscape:connector-curvature="0" /><path
         d="m 4154.73,1269.74 -102.89,48.43 c -2.82,-6.48 -5.94,-13 -8.79,-19.53 l 102.89,-48.2 8.79,19.3 z M 303.32,3078.8 l -101.48,47.62 -9.07,-19.3 101.761,-47.89 c 2.809,6.52 5.938,13.05 8.789,19.57 z"
         style="fill:#ffffff;fill-opacity:1;fill-rule:evenodd;stroke:none"
         id="path6587"
         inkscape:connector-curvature="0" /><path
         d="m 3968.2,941.176 -93.24,65.474 c -3.98,-5.94 -7.93,-11.603 -12.19,-17.584 l 92.97,-65.187 12.46,17.297 z M 483.012,3388.33 l -91.84,64.65 -12.192,-17.58 91.84,-64.65 c 4.258,5.98 8.239,11.92 12.192,17.58 z"
         style="fill:#ffffff;fill-opacity:1;fill-rule:evenodd;stroke:none"
         id="path6589"
         inkscape:connector-curvature="0" /><path
         d="m 3726.99,650.637 -80.23,80.23 c -5.08,-4.84 -10.2,-9.918 -15.31,-15.039 l 80.5,-80.23 15.04,15.039 z M 714.609,3661.61 l -79.648,79.34 -15.039,-15 79.379,-79.38 c 5.109,4.81 10.23,9.93 15.308,15.04 z"
         style="fill:#ffffff;fill-opacity:1;fill-rule:evenodd;stroke:none"
         id="path6591"
         inkscape:connector-curvature="0" /><path
         d="m 3438.98,407.117 -65.46,93.012 c -5.67,-4.262 -11.64,-8.242 -17.31,-12.191 l 65.2,-93.282 17.57,12.461 z M 990.43,3890.36 l -64.649,91.84 -17.582,-12.19 64.653,-91.84 c 5.668,3.95 11.597,7.93 17.578,12.19 z"
         style="fill:#ffffff;fill-opacity:1;fill-rule:evenodd;stroke:none"
         id="path6593"
         inkscape:connector-curvature="0" /><path
         d="m 3112.42,216.926 -48.44,102.89 c -6.52,-3.089 -13.04,-5.937 -19.29,-8.789 l 48.2,-102.89 19.53,8.789 z m -1810.47,3850.034 -47.89,101.45 -19.29,-9.06 47.61,-101.49 c 6.53,3.13 13.05,5.98 19.57,9.1 z"
         style="fill:#ffffff;fill-opacity:1;fill-rule:evenodd;stroke:none"
         id="path6595"
         inkscape:connector-curvature="0" /><path
         d="m 2757.27,87.3867 -30.04,109.4223 c -6.84,-1.993 -13.64,-3.672 -20.43,-5.391 l 29.76,-109.4219 20.71,5.3906 z M 1640.12,4186.57 l -29.46,108.28 -20.7,-5.39 29.45,-108.28 c 6.84,1.99 13.64,3.67 20.71,5.39 z"
         style="fill:#ffffff;fill-opacity:1;fill-rule:evenodd;stroke:none"
         id="path6597"
         inkscape:connector-curvature="0" /><g
         id="g6599"
         transform="matrix(-0.00548982,-9.9999985,9.9999985,-0.00548982,-16.780411,4371.5311)"><g
           transform="matrix(0.976091,1.03271e-4,1.00804e-4,-1,209.258,383.838)"
           style="font-variant:normal;font-weight:normal;font-size:28.15590096px;font-family:'DejaVu Sans';-inkscape-font-specification:DejaVuSans;writing-mode:lr-tb;fill:#fff4ff;fill-opacity:1;fill-rule:nonzero;stroke:none"
           id="text6601"><path
             d="m 8.949947,-18.697278 q -2.1446877,0 -3.2307796,2.117192 -1.0723439,2.103444 -1.0723439,6.337827 0,4.2206357 1.0723439,6.3378274 1.0860919,2.1034438 3.2307796,2.1034438 2.158436,0 3.23078,-2.1034438 1.086092,-2.1171917 1.086092,-6.3378274 0,-4.234383 -1.086092,-6.337827 -1.072344,-2.117192 -3.23078,-2.117192 z m 0,-2.19968 q 3.450748,0 5.265483,2.735852 1.828484,2.722104 1.828484,7.918847 0,5.1829955 -1.828484,7.9188473 -1.814735,2.72210366 -5.265483,2.72210366 -3.4507476,0 -5.2792314,-2.72210366 -1.8147358,-2.7358518 -1.8147358,-7.9188473 0,-5.196743 1.8147358,-7.918847 1.8284838,-2.735852 5.2792314,-2.735852 z"
             style=""
             id="path7669" /></g><g
           transform="matrix(0.84894416,-0.4935129,-0.48171338,-0.86973848,293.28,365.95)"
           style="font-variant:normal;font-weight:normal;font-size:28.15585899px;font-family:'DejaVu Sans';-inkscape-font-specification:DejaVuSans;writing-mode:lr-tb;fill:#fff4ff;fill-opacity:1;fill-rule:nonzero;stroke:none"
           id="text6605"><path
             d="m 11.42457,-11.067122 q 1.993457,0.426187 3.107043,1.7734889 1.127334,1.3473018 1.127334,3.3270106 0,3.0383032 -2.089693,4.7018085 -2.089692,1.66350536 -5.9391262,1.66350536 -1.2923099,0 -2.6671077,-0.26121158 -1.3610499,-0.2474636 -2.8183355,-0.75613879 l 0,-2.68085569 q 1.1548301,0.6736509 2.5296279,1.0173503 1.3747978,0.3436995 2.8733274,0.3436995 2.6121161,0 3.9731661,-1.0310984 1.374797,-1.0310983 1.374797,-2.9970592 0,-1.8147331 -1.278562,-2.8320834 -1.264814,-1.0310984 -3.5332299,-1.0310984 l -2.3921482,0 0,-2.2821647 2.502132,0 q 2.0484491,0 3.1345391,-0.81113 1.08609,-0.824879 1.08609,-2.364653 0,-1.581017 -1.127334,-2.419644 -1.113586,-0.852374 -3.2032789,-0.852374 -1.1410822,0 -2.4471401,0.247463 -1.3060579,0.247464 -2.8733274,0.769887 l 0,-2.474636 q 1.5810175,-0.439935 2.9558153,-0.659903 1.3885457,-0.219968 2.6121158,-0.219968 3.1620353,0 5.0042643,1.443538 1.842229,1.42979 1.842229,3.87693 0,1.704749 -0.976107,2.887075 -0.976106,1.168578 -2.777091,1.622262 z"
             style=""
             id="path7672" /></g><g
           transform="matrix(0.48456887,-0.86807231,-0.84731792,-0.49643778,357.309,307.504)"
           style="font-variant:normal;font-weight:normal;font-size:28.15584183px;font-family:'DejaVu Sans';-inkscape-font-specification:DejaVuSans;writing-mode:lr-tb;fill:#fff4ff;fill-opacity:1;fill-rule:nonzero;stroke:none"
           id="text6609"><path
             d="m 9.2936275,-11.369571 q -1.8697239,0 -2.9695615,1.278561 -1.0860896,1.2785615 -1.0860896,3.5057325 0,2.2134232 1.0860896,3.5057323 1.0998376,1.2785612 2.9695615,1.2785612 1.8697235,0 2.9558135,-1.2785612 1.099838,-1.2923091 1.099838,-3.5057323 0,-2.227171 -1.099838,-3.5057325 -1.08609,-1.278561 -2.9558135,-1.278561 z m 5.5129355,-8.702465 0,2.529627 q -1.044845,-0.494927 -2.117187,-0.756139 -1.058594,-0.261211 -2.103439,-0.261211 -2.7495943,0 -4.2068791,1.855976 -1.4435368,1.855976 -1.6497563,5.609171 0.8111302,-1.196073 2.0346995,-1.828479 1.2235693,-0.646155 2.694602,-0.646155 3.0932929,0 4.8805289,1.883472 1.800984,1.8697237 1.800984,5.1004965 0,3.1620331 -1.869724,5.0730008 -1.869723,1.91096782 -4.9767645,1.91096782 -3.5607242,0 -5.444196,-2.72209802 -1.8834718,-2.7358459 -1.8834718,-7.9188301 0,-4.866782 2.3096589,-7.753855 2.3096589,-2.900822 6.2003344,-2.900822 1.044846,0 2.103439,0.20622 1.072342,0.206219 2.227171,0.618658 z"
             style=""
             id="path7675" /></g><g
           transform="matrix(-0.0321312,-0.99945805,-0.97556363,0.03291825,382.613,223.629)"
           style="font-variant:normal;font-weight:normal;font-size:28.15578651px;font-family:'DejaVu Sans';-inkscape-font-specification:DejaVuSans;writing-mode:lr-tb;fill:#fff4ff;fill-opacity:1;fill-rule:nonzero;stroke:none"
           id="text6613"><path
             d="m 3.0932871,-0.42618622 0,-2.52962148 q 1.0448436,0.494926 2.1171832,0.7561369 1.0723395,0.2612109 2.1034352,0.2612109 2.7495885,0 4.1931225,-1.8422243 1.457282,-1.8559723 1.663501,-5.6229086 -0.797381,1.1823231 -2.020948,1.8147285 -1.2235664,0.6324053 -2.7083442,0.6324053 -3.0795392,0 -4.8805197,-1.8559722 -1.7872325,-1.8697198 -1.7872325,-5.1004868 0,-3.162027 1.8697202,-5.072991 1.8697202,-1.910964 4.9767552,-1.910964 3.560717,0 5.430437,2.735841 1.883469,2.722092 1.883469,7.918815 0,4.8530235 -2.309655,7.7538394 -2.295906,2.88706794 -6.186574,2.88706794 -1.0448437,0 -2.1171832,-0.20621914 Q 4.2481143,-0.01374794 3.0932871,-0.42618622 Z M 8.61996,-9.1286339 q 1.86972,0 2.955808,-1.2785591 1.099835,-1.278558 1.099835,-3.505725 0,-2.213419 -1.099835,-3.491977 -1.086088,-1.292307 -2.955808,-1.292307 -1.8697202,0 -2.9695556,1.292307 -1.0860874,1.278558 -1.0860874,3.491977 0,2.227167 1.0860874,3.505725 1.0998354,1.2785591 2.9695556,1.2785591 z"
             style=""
             id="path7678" /></g><g
           transform="matrix(-0.48580527,-0.86734638,-0.84660905,0.49770498,365.785,147.42)"
           style="font-variant:normal;font-weight:normal;font-size:28.15590286px;font-family:'DejaVu Sans';-inkscape-font-specification:DejaVuSans;writing-mode:lr-tb;fill:#fff4ff;fill-opacity:1;fill-rule:nonzero;stroke:none"
           id="text6617"><path
             d="m 3.4919919,-2.3371599 4.5368398,0 0,-15.6589711 -4.9355318,0.989856 0,-2.529632 4.9080358,-0.989856 2.7770963,0 0,18.1886031 4.536839,0 0,2.3371599 -11.8232791,0 0,-2.3371599 z"
             style=""
             id="path7681" /></g><g
           transform="matrix(-0.57990772,-0.80438196,-0.78515082,0.59411249,356.523,131.008)"
           style="font-variant:normal;font-weight:normal;font-size:28.15589523px;font-family:'DejaVu Sans';-inkscape-font-specification:DejaVuSans;writing-mode:lr-tb;fill:#fff4ff;fill-opacity:1;fill-rule:nonzero;stroke:none"
           id="text6621"><path
             d="m 3.4919909,-2.3371593 4.5368386,0 0,-15.6589667 -4.9355305,0.989855 0,-2.529631 4.9080345,-0.989856 2.7770955,0 0,18.1885987 4.536838,0 0,2.3371593 -11.8232761,0 0,-2.3371593 z"
             style=""
             id="path7684" /></g><g
           transform="matrix(-0.84470555,-0.50108905,-0.48910875,0.86539573,309.125,82.7836)"
           style="font-variant:normal;font-weight:normal;font-size:28.15590668px;font-family:'DejaVu Sans';-inkscape-font-specification:DejaVuSans;writing-mode:lr-tb;fill:#fff4ff;fill-opacity:1;fill-rule:nonzero;stroke:none"
           id="text6625"><path
             d="m 3.4919923,-2.3371602 4.5368405,0 0,-15.6589738 -4.9355325,0.989856 0,-2.529632 4.9080365,-0.989856 2.7770962,0 0,18.1886058 4.53684,0 0,2.3371602 -11.8232807,0 0,-2.3371602 z"
             style=""
             id="path7687" /></g><g
           transform="matrix(-0.89353251,-0.40250164,-0.39287869,0.91541926,293.084,73.3359)"
           style="font-variant:normal;font-weight:normal;font-size:28.15586472px;font-family:'DejaVu Sans';-inkscape-font-specification:DejaVuSans;writing-mode:lr-tb;fill:#fff4ff;fill-opacity:1;fill-rule:nonzero;stroke:none"
           id="text6629"><path
             d="m 10.640937,-18.106091 -7.0114701,10.957141 7.0114701,0 0,-10.957141 z m -0.7286428,-2.419644 3.4919868,0 0,13.376785 2.92832,0 0,2.3096608 -2.92832,0 0,4.8392892 -2.763344,0 0,-4.8392892 -9.2661389,0 0,-2.6808563 8.5374961,-13.0055895 z"
             style=""
             id="path7690" /></g><g
           transform="matrix(-0.97342637,-0.07383737,-0.072072,0.9972703,238.327,56.2551)"
           style="font-variant:normal;font-weight:normal;font-size:28.15583229px;font-family:'DejaVu Sans';-inkscape-font-specification:DejaVuSans;writing-mode:lr-tb;fill:#fff4ff;fill-opacity:1;fill-rule:nonzero;stroke:none"
           id="text6633"><path
             d="m 3.4919831,-2.337154 4.5368285,0 0,-15.658932 -4.9355195,0.989853 0,-2.529625 4.9080235,-0.989854 2.7770894,0 0,18.188558 4.536828,0 0,2.337154 -11.8232499,0 0,-2.337154 z"
             style=""
             id="path7693" /></g><g
           transform="matrix(-0.975516,0.035179,0.0343379,0.99941,219.871,54.9109)"
           style="font-variant:normal;font-weight:normal;font-size:28.15581512px;font-family:'DejaVu Sans';-inkscape-font-specification:DejaVuSans;writing-mode:lr-tb;fill:#fff4ff;fill-opacity:1;fill-rule:nonzero;stroke:none"
           id="text6637"><path
             d="m 8.9499197,-9.7473012 q -1.9797057,0 -3.1207861,1.0585926 -1.1273324,1.0585927 -1.1273324,2.9145668 0,1.8559742 1.1273324,2.9145668 1.1410804,1.0585927 3.1207861,1.0585927 1.9797053,0 3.1207863,-1.0585927 1.14108,-1.0723406 1.14108,-2.9145668 0,-1.8559741 -1.14108,-2.9145668 -1.127333,-1.0585926 -3.1207863,-1.0585926 z M 6.1728325,-10.929625 q -1.7872343,-0.439935 -2.7908352,-1.663503 -0.9898529,-1.223568 -0.9898529,-2.983307 0,-2.460884 1.7459905,-3.890672 1.7597385,-1.429787 4.8117848,-1.429787 3.0657943,0 4.8117853,1.429787 1.74599,1.429788 1.74599,3.890672 0,1.759739 -1.003601,2.983307 -0.989853,1.223568 -2.763339,1.663503 2.007202,0.46743 3.120786,1.8284777 1.127333,1.3610477 1.127333,3.3270055 0,2.9833066 -1.828479,4.5780696 -1.81473,1.59476294 -5.2104753,1.59476294 -3.3957452,0 -5.2242235,-1.59476294 -1.8147302,-1.594763 -1.8147302,-4.5780696 0,-1.9659578 1.1273324,-3.3270055 1.1273325,-1.3610477 3.1345341,-1.8284777 z m -1.0173488,-4.385599 q 0,1.594763 0.9898529,2.48838 1.0036008,0.893618 2.8045831,0.893618 1.7872343,0 2.7908353,-0.893618 1.017349,-0.893617 1.017349,-2.48838 0,-1.594763 -1.017349,-2.48838 -1.003601,-0.893617 -2.7908353,-0.893617 -1.8009823,0 -2.8045831,0.893617 -0.9898529,0.893617 -0.9898529,2.48838 z"
             style=""
             id="path7696" /></g><g
           transform="matrix(-0.88529986,0.42116204,0.4110935,0.90698541,154.154,67.3281)"
           style="font-variant:normal;font-weight:normal;font-size:28.15582848px;font-family:'DejaVu Sans';-inkscape-font-specification:DejaVuSans;writing-mode:lr-tb;fill:#fff4ff;fill-opacity:1;fill-rule:nonzero;stroke:none"
           id="text6641"><path
             d="m 5.4029495,-2.3371537 9.6923145,0 0,2.3371537 -13.0330695,0 0,-2.3371537 q 1.5810157,-1.6360076 4.3031124,-4.3856003 2.7358447,-2.7633406 3.4369908,-3.560722 1.3335523,-1.498528 1.8559753,-2.529626 0.53617,-1.044845 0.53617,-2.048446 0,-1.636008 -1.154829,-2.667105 -1.1410806,-1.031097 -2.9833076,-1.031097 -1.3060565,0 -2.7633406,0.453683 -1.4435361,0.453682 -3.0932917,1.374796 l 0,-2.804585 q 1.6772515,-0.67365 3.1345356,-1.017349 1.4572841,-0.343699 2.6671048,-0.343699 3.1895275,0 5.0867465,1.594764 1.897219,1.594763 1.897219,4.261868 0,1.264813 -0.481179,2.405894 -0.467431,1.127333 -1.718495,2.6671047 -0.343699,0.398691 -2.185926,2.3096578 -1.8422275,1.897219 -5.1967305,5.3204618 z"
             style=""
             id="path7699" /></g><g
           transform="matrix(-0.83400966,0.51955313,0.5071311,0.85443815,137.395,75.3621)"
           style="font-variant:normal;font-weight:normal;font-size:28.1558075px;font-family:'DejaVu Sans';-inkscape-font-specification:DejaVuSans;writing-mode:lr-tb;fill:#fff4ff;fill-opacity:1;fill-rule:nonzero;stroke:none"
           id="text6645"><path
             d="m 3.49198,-2.337152 4.5368245,0 0,-15.658918 -4.9355151,0.989852 0,-2.529623 4.9080192,-0.989853 2.7770864,0 0,18.188542 4.536825,0 0,2.337152 -11.82324,0 0,-2.337152 z"
             style=""
             id="path7702" /></g><g
           transform="matrix(-0.55958668,0.81935043,0.7997607,0.573293,86.2273,119.358)"
           style="font-variant:normal;font-weight:normal;font-size:28.15582085px;font-family:'DejaVu Sans';-inkscape-font-specification:DejaVuSans;writing-mode:lr-tb;fill:#fff4ff;fill-opacity:1;fill-rule:nonzero;stroke:none"
           id="text6649"><path
             d="m 5.402948,-2.3371531 9.692311,0 0,2.3371531 -13.0330651,0 0,-2.3371531 q 1.5810153,-1.6360072 4.3031113,-4.385599 2.7358439,-2.7633399 3.4369899,-3.5607219 1.3335519,-1.498527 1.8559749,-2.529624 0.53617,-1.044845 0.53617,-2.048446 0,-1.636007 -1.154829,-2.667104 -1.1410802,-1.031097 -2.9833068,-1.031097 -1.3060561,0 -2.7633398,0.453682 -1.4435358,0.453683 -3.0932909,1.374796 l 0,-2.804583 q 1.6772511,-0.67365 3.1345347,-1.017349 1.4572837,-0.343699 2.6671042,-0.343699 3.1895266,0 5.0867446,1.594763 1.897219,1.594763 1.897219,4.261867 0,1.264813 -0.481179,2.405893 -0.46743,1.127333 -1.718495,2.6671044 -0.343699,0.3986909 -2.185925,2.3096572 -1.8422269,1.8972184 -5.196729,5.3204603 z"
             style=""
             id="path7705" /></g><g
           transform="matrix(-0.46304904,0.88031397,0.85926718,0.47439152,75.6652,134.925)"
           style="font-variant:normal;font-weight:normal;font-size:28.15584373px;font-family:'DejaVu Sans';-inkscape-font-specification:DejaVuSans;writing-mode:lr-tb;fill:#fff4ff;fill-opacity:1;fill-rule:nonzero;stroke:none"
           id="text6653"><path
             d="m 10.640929,-18.106077 -7.0114648,10.9571323 7.0114648,0 0,-10.9571323 z m -0.7286422,-2.419643 3.4919842,0 0,13.3767753 2.928318,0 0,2.3096591 -2.928318,0 0,4.8392856 -2.763342,0 0,-4.8392856 -9.2661319,0 0,-2.6808543 8.5374897,-13.0055801 z"
             style=""
             id="path7708" /></g><g
           transform="matrix(-0.06453398,0.99781203,0.97395763,0.06611474,53.6195,199.495)"
           style="font-variant:normal;font-weight:normal;font-size:28.15583801px;font-family:'DejaVu Sans';-inkscape-font-specification:DejaVuSans;writing-mode:lr-tb;fill:#fff4ff;fill-opacity:1;fill-rule:nonzero;stroke:none"
           id="text6657"><path
             d="m 5.4029513,-2.3371545 9.6923177,0 0,2.3371545 -13.0330738,0 0,-2.3371545 q 1.5810163,-1.6360082 4.3031139,-4.3856017 2.7358456,-2.7633416 3.4369919,-3.5607238 1.333553,-1.498528 1.855976,-2.529626 0.53617,-1.044846 0.53617,-2.048447 0,-1.636008 -1.154829,-2.667106 -1.1410812,-1.031098 -2.9833089,-1.031098 -1.3060569,0 -2.7633415,0.453683 -1.4435366,0.453683 -3.0932928,1.374797 l 0,-2.804585 q 1.6772521,-0.673651 3.1345367,-1.01735 1.4572846,-0.343699 2.6671057,-0.343699 3.1895288,0 5.0867478,1.594764 1.89722,1.594764 1.89722,4.26187 0,1.264813 -0.481179,2.405895 -0.467431,1.127333 -1.718496,2.6671054 -0.343699,0.398691 -2.185927,2.3096585 -1.8422275,1.8972196 -5.1967317,5.3204636 z"
             style=""
             id="path7711" /></g><g
           transform="matrix(0.05092787,0.99863794,0.97476212,-0.0521753,52.4555,218.417)"
           style="font-variant:normal;font-weight:normal;font-size:28.15581703px;font-family:'DejaVu Sans';-inkscape-font-specification:DejaVuSans;writing-mode:lr-tb;fill:#fff4ff;fill-opacity:1;fill-rule:nonzero;stroke:none"
           id="text6661"><path
             d="m 2.3096569,-20.525701 13.1980391,0 0,1.182325 L 8.0563031,0 l -2.900819,0 7.0114579,-18.188548 -9.8572851,0 0,-2.337153 z"
             style=""
             id="path7714" /></g><g
           transform="matrix(0.4496876,0.88755451,0.86633379,-0.46070271,66.4234,285.308)"
           style="font-variant:normal;font-weight:normal;font-size:28.15582466px;font-family:'DejaVu Sans';-inkscape-font-specification:DejaVuSans;writing-mode:lr-tb;fill:#fff4ff;fill-opacity:1;fill-rule:nonzero;stroke:none"
           id="text6665"><path
             d="m 11.424556,-11.067109 q 1.993454,0.426187 3.107039,1.7734872 1.127333,1.3473002 1.127333,3.3270066 0,3.0382995 -2.08969,4.7018028 -2.08969,1.66350328 -5.9391195,1.66350328 -1.2923084,0 -2.6671045,-0.26121127 -1.3610481,-0.2474633 -2.818332,-0.75613787 l 0,-2.68085244 q 1.1548287,0.6736501 2.5296248,1.0173491 1.3747962,0.3436991 2.8733239,0.3436991 2.6121123,0 3.9731613,-1.0310971 1.374796,-1.0310971 1.374796,-2.9970556 0,-1.8147309 -1.278561,-2.83208 -1.264812,-1.0310971 -3.5332258,-1.0310971 l -2.3921452,0 0,-2.2821617 2.5021289,0 q 2.0484461,0 3.1345351,-0.81113 1.086089,-0.824877 1.086089,-2.364649 0,-1.581015 -1.127333,-2.419641 -1.113585,-0.852374 -3.2032748,-0.852374 -1.1410808,0 -2.4471371,0.247464 -1.3060563,0.247463 -2.8733239,0.769885 l 0,-2.474633 q 1.5810156,-0.439934 2.9558117,-0.659902 1.3885441,-0.219967 2.6121126,-0.219967 3.1620315,0 5.0042575,1.443536 1.842227,1.429788 1.842227,3.876925 0,1.704747 -0.976105,2.887072 -0.976105,1.168576 -2.777088,1.622259 z"
             style=""
             id="path7717" /></g><g
           transform="matrix(0.54658456,0.82851083,0.80870305,-0.55997303,75.002,302.105)"
           style="font-variant:normal;font-weight:normal;font-size:28.1558094px;font-family:'DejaVu Sans';-inkscape-font-specification:DejaVuSans;writing-mode:lr-tb;fill:#fff4ff;fill-opacity:1;fill-rule:nonzero;stroke:none"
           id="text6669"><path
             d="m 8.9499179,-18.697217 q -2.1446808,0 -3.2307691,2.117185 -1.0723404,2.103437 -1.0723404,6.337806 0,4.2206222 1.0723404,6.3378071 1.0860883,2.103437 3.2307691,2.103437 2.1584291,0 3.2307691,-2.103437 1.086088,-2.1171849 1.086088,-6.3378071 0,-4.234369 -1.086088,-6.337806 -1.07234,-2.117185 -3.2307691,-2.117185 z m 0,-2.199673 q 3.4507361,0 5.2654661,2.735843 1.828478,2.722095 1.828478,7.918821 0,5.182979 -1.828478,7.9188218 -1.81473,2.72209486 -5.2654661,2.72209486 -3.4507364,0 -5.2792142,-2.72209486 -1.8147299,-2.7358428 -1.8147299,-7.9188218 0,-5.196726 1.8147299,-7.918821 1.8284778,-2.735843 5.2792142,-2.735843 z"
             style=""
             id="path7720" /></g><g
           transform="matrix(0.82422878,0.53568405,0.52287577,-0.8444185,120.415,352.29)"
           style="font-variant:normal;font-weight:normal;font-size:28.15583038px;font-family:'DejaVu Sans';-inkscape-font-specification:DejaVuSans;writing-mode:lr-tb;fill:#ffffff;fill-opacity:1;fill-rule:nonzero;stroke:none;stroke-opacity:1"
           id="text6673"><path
             d="m 11.424558,-11.067111 q 1.993455,0.426187 3.10704,1.7734873 1.127333,1.3473005 1.127333,3.3270073 0,3.0383001 -2.08969,4.7018037 -2.089691,1.66350366 -5.9391209,1.66350366 -1.2923087,0 -2.6671051,-0.26121132 -1.3610484,-0.24746335 -2.8183326,-0.75613802 l 0,-2.68085302 q 1.154829,0.6736503 2.5296254,1.0173494 1.3747964,0.3436991 2.8733245,0.3436991 2.6121127,0 3.9731617,-1.0310973 1.374796,-1.0310973 1.374796,-2.9970562 0,-1.8147313 -1.27856,-2.8320806 -1.264813,-1.0310973 -3.5332271,-1.0310973 l -2.3921458,0 0,-2.2821617 2.5021295,0 q 2.0484464,0 3.1345354,-0.81113 1.08609,-0.824878 1.08609,-2.36465 0,-1.581016 -1.127334,-2.419642 -1.113585,-0.852373 -3.2032751,-0.852373 -1.1410811,0 -2.4471376,0.247463 -1.3060566,0.247463 -2.8733245,0.769886 l 0,-2.474634 q 1.5810158,-0.439935 2.9558122,-0.659902 1.3885444,-0.219967 2.6121132,-0.219967 3.1620318,0 5.0042588,1.443536 1.842227,1.429788 1.842227,3.876926 0,1.704747 -0.976105,2.887072 -0.976106,1.168577 -2.777089,1.62226 z"
             style="fill:#ffffff;fill-opacity:1;stroke:none;stroke-opacity:1"
             id="path7723" /></g><g
           transform="matrix(0.87703734,0.43893277,0.42843886,-0.89851991,136.07,362.395)"
           style="font-variant:normal;font-weight:normal;font-size:28.15582466px;font-family:'DejaVu Sans';-inkscape-font-specification:DejaVuSans;writing-mode:lr-tb;fill:#fff4ff;fill-opacity:1;fill-rule:nonzero;stroke:none"
           id="text6677"><path
             d="m 11.424556,-11.067109 q 1.993454,0.426187 3.107039,1.7734872 1.127333,1.3473002 1.127333,3.3270066 0,3.0382995 -2.08969,4.7018028 -2.08969,1.66350328 -5.9391195,1.66350328 -1.2923084,0 -2.6671045,-0.26121127 -1.3610481,-0.2474633 -2.818332,-0.75613787 l 0,-2.68085244 q 1.1548287,0.6736501 2.5296248,1.0173491 1.3747962,0.3436991 2.8733239,0.3436991 2.6121123,0 3.9731613,-1.0310971 1.374796,-1.0310971 1.374796,-2.9970556 0,-1.8147309 -1.278561,-2.83208 -1.264812,-1.0310971 -3.5332258,-1.0310971 l -2.3921452,0 0,-2.2821617 2.5021289,0 q 2.0484461,0 3.1345351,-0.81113 1.086089,-0.824877 1.086089,-2.364649 0,-1.581015 -1.127333,-2.419641 -1.113585,-0.852374 -3.2032748,-0.852374 -1.1410808,0 -2.4471371,0.247464 -1.3060563,0.247463 -2.8733239,0.769885 l 0,-2.474633 q 1.5810156,-0.439934 2.9558117,-0.659902 1.3885441,-0.219967 2.6121126,-0.219967 3.1620315,0 5.0042575,1.443536 1.842227,1.429788 1.842227,3.876925 0,1.704747 -0.976105,2.887072 -0.976105,1.168576 -2.777088,1.622259 z"
             style=""
             id="path7726" /></g></g><path
         d="m 3508.01,2214.07 c 0,-353.79 -136.76,-693.12 -380.2,-943.28 -243.43,-250.19 -573.59,-390.743 -917.85,-390.743 -344.26,0 -674.41,140.553 -917.85,390.743 -243.4,250.16 -380.161,589.49 -380.161,943.28 0,353.83 136.761,693.13 380.161,943.32 243.44,250.16 573.59,390.75 917.85,390.75 344.26,0 674.42,-140.59 917.85,-390.75 243.44,-250.19 380.2,-589.49 380.2,-943.32 z"
         style="fill:#000000;fill-opacity:1;fill-rule:nonzero;stroke:none"
         id="path6681"
         inkscape:connector-curvature="0" /></g></g></svg>